# xmcd CD database file generated by Grip 2.92
# 
# Track frame offsets:
#       150
#       22910
#       52384
#       73387
#       93307
#       114425
#       129361
#       154838
#       174316
#       194028
#       246227
# 
# Disc length: 3669 seconds
# 
# Revision: 3
# Processed by: cddbd v1.4b41PL1 Copyright (c) Steve Scherf et al.
# Submitted via: Grip 2.92
# 
DISCID=9c0e530b
DTITLE=Greg Schaber - Greg Schaber and  High Street Live! At York Street Cafe
DYEAR=1900
DGENRE=
TTITLE0=Lonely, Lonely, Lonely
TTITLE1=I Promised Not to Tell
TTITLE2=Heartbreak Road
TTITLE3=Decoursey Yard
TTITLE4=Slippin' Away
TTITLE5=Lifetime of Love
TTITLE6=Nobody Home
TTITLE7=Keep Myself From Fallin' Down
TTITLE8=Desperate People
TTITLE9=The Jim Beam Blues
TTITLE10=Hey, Hey Little Mama
EXTD=
EXTT0=
EXTT1=
EXTT2=
EXTT3=
EXTT4=
EXTT5=
EXTT6=
EXTT7=
EXTT8=
EXTT9=
EXTT10=
PLAYORDER=
